<?xml version="1.0" encoding="utf-8"?>
<!-- Generator: Adobe Illustrator 22.0.0, SVG Export Plug-In . SVG Version: 6.00 Build 0)  -->
<svg version="1.1" id="Layer_1" xmlns="http://www.w3.org/2000/svg" xmlns:xlink="http://www.w3.org/1999/xlink" x="0px" y="0px"
	 viewBox="0 0 200 200" style="enable-background:new 0 0 200 200;" xml:space="preserve">
<style type="text/css">
	.st0{fill-rule:evenodd;clip-rule:evenodd;fill:#2b9ff6;}
</style>
<path class="st0" d="M102.4,158.9c-13.6,13.6-35.5,13.5-49.1,0c-13.6-13.6-13.6-35.5,0-49.1l55.5-55.5L91,36.4H4.2v157.1H161v-87.1
	l-3-3L102.4,158.9z M143.7,57.7c0,0,2.7-2.8,2.7-2.8c1.4-1.6,1.4-4-0.1-5.5c-1.5-1.5-3.9-1.5-5.5-0.1C140.9,49.3,92,98,92,98
	c-10.1,10.1-5.4,19.1-0.8,23.7c9,9,18.8,3.8,24.5-1.9L189,46.6c4.4-4.4,6.8-10.2,6.7-16.3c-0.1-5.8-2.6-11.3-6.7-15.1
	c-6.8-6.9-21.5-11.8-32.2-1.1L58.8,112c-13.2,13.2-13.9,28.4-1.8,41.6c14.4,13.6,29.6,13.5,43.2,0l22.8-22.9l52.6-52.8
	c1.6-1.6,1.6-4.1,0-5.6c-1.6-1.6-4.1-1.6-5.6,0l-52.7,52.8L94.6,148c-10.6,10.6-20.7,10.6-31.9,0c-9.1-10-8.6-20,1.8-30.4l97.9-97.9
	c7.5-7.5,17.5-2.4,21.1,1.2c2.7,2.5,4.2,5.9,4.3,9.5c0.1,3.9-1.5,7.6-4.3,10.5l-73.3,73.3c-7.6,7.6-10.9,4.3-13.3,1.9
	c-2-2-5.9-5.8,0.8-12.5L143.7,57.7z"/>
</svg>
