<?xml version="1.0" encoding="utf-8"?>
<!-- Generator: Adobe Illustrator 22.0.0, SVG Export Plug-In . SVG Version: 6.00 Build 0)  -->
<svg version="1.1" id="Layer_1" xmlns="http://www.w3.org/2000/svg" xmlns:xlink="http://www.w3.org/1999/xlink" x="0px" y="0px"
	 viewBox="0 0 200 200" style="enable-background:new 0 0 200 200;" xml:space="preserve">
<style type="text/css">
	.st0{fill-rule:evenodd;clip-rule:evenodd;fill:#2b9ff6;}
</style>
<path class="st0" d="M28.5,87.7h24v-12h-24V87.7z M28.5,111.7h24v-12h-24V111.7z M28.5,63.7h24v-12h-24V63.7z M124.5,63.7h-12h-24
	v12v48v72h84v-12v-12h12h12v-96v-12H124.5z M100.5,99.7h48v12h-48V99.7z M100.5,147.7h24v12h-24V147.7z M160.5,183.7h-60v-12h60
	V183.7z M160.5,135.7h-60v-12h60V135.7z M172.5,87.7h-72v-12h72V87.7z M112.5,3.8H4.5v120v12h72v-12v-60v-12h36V3.8z M100.5,39.7
	h-36v24v12v36v12h-48v-12v-12v-12v-12v-12v-12v-12v-12v-12h48h24h12V39.7z M28.5,39.7h24v-12h-24V39.7z"/>
</svg>
