<?xml version="1.0" encoding="utf-8"?>
<!-- Generator: Adobe Illustrator 22.0.0, SVG Export Plug-In . SVG Version: 6.00 Build 0)  -->
<svg version="1.1" id="Layer_1" xmlns="http://www.w3.org/2000/svg" xmlns:xlink="http://www.w3.org/1999/xlink" x="0px" y="0px"
	 viewBox="0 0 200 200" style="enable-background:new 0 0 200 200;" xml:space="preserve">
<style type="text/css">
	.st0{fill:#2b9ff6;}
</style>
<g>
	<path class="st0" d="M106,108.8v26c9.5-1.5,14.3-5.6,14.3-12.3c0-3.1-1.1-5.7-3.3-7.8C114.8,112.7,111.1,110.7,106,108.8z"/>
	<path class="st0" d="M100.8,3.7c-53,0-96,43-96,96s43,96,96,96c53,0,96-43,96-96S153.8,3.7,100.8,3.7z M130.9,140.7
		c-5.8,5.1-14.1,8.2-24.9,9.4v17.7H95.2v-17.2c-13.5-0.2-24.5-2.3-33.1-6.2v-17.2c4.7,2.3,10.1,4.2,16.4,5.7
		c6.2,1.5,11.8,2.3,16.8,2.4V105l-6.8-2.5C79.4,99,72.9,95,68.8,90.2s-6.1-10.6-6.1-17.6c0-7.5,2.9-13.6,8.7-18.5
		c5.8-4.8,13.7-7.8,23.7-8.8V31.7H106v13.4c11,0.4,21.5,2.6,31.3,6.7l-5.9,14.9c-8.5-3.4-17-5.4-25.4-6v29.6l6.2,2.4
		c10.3,4,17.4,8.1,21.4,12.5s5.9,9.8,5.9,16.1C139.5,129.1,136.6,135.6,130.9,140.7z"/>
	<path class="st0" d="M81.8,72.4c0,3.1,1,5.7,2.9,7.7c1.9,2.1,5.4,4.1,10.5,6.1V60.9c-4.3,0.7-7.6,2-9.9,4
		C82.9,66.9,81.8,69.4,81.8,72.4z"/>
</g>
</svg>
