<?xml version="1.0" encoding="utf-8"?>
<!-- Generator: Adobe Illustrator 22.0.0, SVG Export Plug-In . SVG Version: 6.00 Build 0)  -->
<svg version="1.1" id="Layer_1" xmlns="http://www.w3.org/2000/svg" xmlns:xlink="http://www.w3.org/1999/xlink" x="0px" y="0px"
	 viewBox="0 0 200 200" style="enable-background:new 0 0 200 200;" xml:space="preserve">
<style type="text/css">
	.st0{fill-rule:evenodd;clip-rule:evenodd;fill:#2b9ff6;}
</style>
<path class="st0" d="M169,113c0,0,0.1-2.7,0-7c-0.1-4.3-3.5-4.7-3.5-4.7l-15.2-7.3l-1.9-3l-1.6-0.3v-1.3l1.1-0.7l0.7-2.1l0.5-1.3
	l0.3-1.9l0.7-0.4l0.8-1.7l0.3-0.9l0.3-1.7l0.4-4.3c0,0-0.7,0.3-0.7-0.3c0-0.6,0.5-3.6,0.5-7.3c0-3.7-1.8-5.7-1.8-5.7
	s-0.7-2.1-6.2-4.6c-5.6-2.4-9.9,0.7-9.9,0.7l-0.8,1.1l-1.5,0.3l-1.9,2.3l-0.8,2l-0.1,3.4l0.1,1.1l0.5,0.9l0.3,4.9l-0.1,1.1l1.4,8.3
	l0.7,0.6l1,4.3l1.6,2.1v1l-1.8,0.3l-2,3.6c0,0-9.1,3.9-14,5.9c-4.9,2-4.3,4.6-4.3,4.6l-0.3,7.9L169,113z M181.9,31.1H18.4
	c-7.7,0-13.9,6.3-13.9,14v108.6c0,7.8,6.2,14,13.9,14h163.5c7.7,0,13.9-6.3,13.9-14V45.1C195.8,37.4,189.6,31.1,181.9,31.1z
	 M86.4,99.9H17.6V86.3h68.8V99.9z M86.4,72.7H17.6V59.1h68.8V72.7z M181.5,127H99.7V45.3h81.7V127z"/>
</svg>
