<?xml version="1.0" encoding="utf-8"?>
<!-- Generator: Adobe Illustrator 22.0.0, SVG Export Plug-In . SVG Version: 6.00 Build 0)  -->
<svg version="1.1" id="Layer_1" xmlns="http://www.w3.org/2000/svg" xmlns:xlink="http://www.w3.org/1999/xlink" x="0px" y="0px"
	 viewBox="0 0 200 200" style="enable-background:new 0 0 200 200;" xml:space="preserve">
<style type="text/css">
	.st0{fill-rule:evenodd;clip-rule:evenodd;fill:#2b9ff6;}
</style>
<path class="st0" d="M105.4,140.3c-3.1-3-6.8-5.3-10.8-6.7l-8.4-32.7l100.2-28l10.7,41.8L105.4,140.3z M73.5,51.6l66.8-18.7
	L151,74.7L84.2,93.4L73.5,51.6z M76.5,132.9c-1.9,0.5-3.6,1.3-5.3,2.1L41.7,20.3H30.7c-1.1,2.4-3.4,4.1-6.2,4.1H10.7
	c-3.8,0-6.9-3.2-6.9-7.2c0-4,3.1-7.2,6.9-7.2h13.8c2.3,0,4.3,1.3,5.5,3.1h21.3v0.3l0.3-0.1L82,132C80.2,132.1,78.3,132.4,76.5,132.9
	z M78.3,139.9c12.9-3.6,26.2,4.4,29.6,17.9c3.5,13.5-4.2,27.3-17.1,30.9c-12.9,3.6-26.2-4.4-29.6-17.9
	C57.7,157.4,65.4,143.5,78.3,139.9z M74.6,167.6c1.5,5.8,7.2,9.2,12.7,7.7c5.5-1.6,8.8-7.5,7.3-13.3c-1.5-5.8-7.2-9.2-12.7-7.7
	C76.4,155.8,73.1,161.8,74.6,167.6z M196.1,139.2l-80.7,22.6c-0.1-1.9-0.4-3.9-0.9-5.8c-0.5-1.9-1.2-3.8-2-5.5l80.3-22.4
	L196.1,139.2z"/>
</svg>
