<?xml version="1.0" encoding="utf-8"?>
<!-- Generator: Adobe Illustrator 22.0.0, SVG Export Plug-In . SVG Version: 6.00 Build 0)  -->
<svg version="1.1" id="Layer_1" xmlns="http://www.w3.org/2000/svg" xmlns:xlink="http://www.w3.org/1999/xlink" x="0px" y="0px"
	 viewBox="0 0 200 200" style="enable-background:new 0 0 200 200;" xml:space="preserve">
<style type="text/css">
	.st0{fill:#ffffff;}
</style>
<path class="st0" d="M161.4,30.6H83.1c-10.5,0-18.9,8.5-18.9,18.9v108.7c0,10.5,8.5,18.9,18.9,18.9l78.3,0
	c10.5,0,18.9-8.5,18.9-18.9V49.6C180.3,39.1,171.9,30.6,161.4,30.6z M172.8,158.2c0,6.3-5.1,11.4-11.4,11.4H83.1
	c-6.3,0-11.3-5.1-11.4-11.4V49.6c0-6.3,5.1-11.4,11.4-11.4h78.3c6.3,0,11.4,5.1,11.4,11.4V158.2z M185.3,17.1
	c-6.2-3.6-12.3-3.8-14.4-3.9c-0.3,0-0.5,0-0.7,0H89.1v7.6h81.4l0.1,0c0,0,0,0,0.3,0c1.4,0,6.4,0.3,10.6,2.8c4.1,2.6,8,6.8,8.1,17
	c0,112.3,0,112.3,0,112.3h7.6c0,0,0,0,0-112.3C197.2,28.3,191.5,20.7,185.3,17.1z M153.7,123.1H90.8c-1.9,0-3.4,1.5-3.4,3.4
	c0,1.9,1.5,3.4,3.4,3.4h62.9c1.9,0,3.4-1.5,3.4-3.4C157.1,124.7,155.6,123.1,153.7,123.1z M153.7,108.2H90.8c-1.9,0-3.4,1.5-3.4,3.4
	c0,1.9,1.5,3.4,3.4,3.4h62.9c1.9,0,3.4-1.5,3.4-3.4C157.1,109.8,155.6,108.2,153.7,108.2z M153.7,138H90.8c-1.9,0-3.4,1.5-3.4,3.4
	c0,1.9,1.5,3.4,3.4,3.4h62.9c1.9,0,3.4-1.5,3.4-3.4C157.1,139.6,155.6,138,153.7,138z M153.7,63.5H90.8c-1.9,0-3.4,1.5-3.4,3.4
	c0,1.9,1.5,3.4,3.4,3.4h62.9c1.9,0,3.4-1.5,3.4-3.4C157.1,65,155.6,63.5,153.7,63.5z M153.7,78.4H90.8c-1.9,0-3.4,1.5-3.4,3.4
	c0,1.9,1.5,3.4,3.4,3.4h62.9c1.9,0,3.4-1.5,3.4-3.4C157.1,79.9,155.6,78.4,153.7,78.4z M153.7,93.3H90.8c-1.9,0-3.4,1.5-3.4,3.4
	c0,1.9,1.5,3.4,3.4,3.4h62.9c1.9,0,3.4-1.5,3.4-3.4C157.1,94.9,155.6,93.3,153.7,93.3z"/>
<path class="st0" d="M22.7,12.5C12.2,12.5,3.6,21,3.6,31.6v4.4h38.1v-4.4C41.8,21,33.2,12.5,22.7,12.5z M3.6,121.3h38.1V45H3.6
	V121.3z M23.2,176.4l18.6-47.8H3.6L23.2,176.4z"/>
</svg>
