<?xml version="1.0" encoding="utf-8"?>
<!-- Generator: Adobe Illustrator 22.0.0, SVG Export Plug-In . SVG Version: 6.00 Build 0)  -->
<svg version="1.1" id="Layer_1" xmlns="http://www.w3.org/2000/svg" xmlns:xlink="http://www.w3.org/1999/xlink" x="0px" y="0px"
	 viewBox="0 0 200 200" style="enable-background:new 0 0 200 200;" xml:space="preserve">
<style type="text/css">
	.st0{fill:#ce4747;}
</style>
<path class="st0" d="M100.7,4C48.1,4,5.4,46.7,5.4,99.3c0,42.5,27.9,78.5,66.3,90.8L50.6,33.5c-0.4-3.3,1.8-6.2,5.1-6.7
	c3.2-0.4,6.2,1.8,6.7,5.1l21.8,161.2c3.1,0.6,6.3,1,9.5,1.2l10.2,0.2c51.1-1.7,92.1-43.6,92.1-95.2C196,46.7,153.3,4,100.7,4z
	 M106.1,109.5c-11.1-2.9-23.4-4.7-26.3-3.5c-8.8-63.2-8.2-66.7-8.2-66.7s62,15.8,86-3.5c-14.6,34.5-23.4,41-18.1,45.7
	c5.3,4.7,26.3,21.1,26.3,21.1S142.4,118.9,106.1,109.5z"/>
</svg>
